<svg width="43" height="41" viewBox="0 0 43 41" fill="none" xmlns="http://www.w3.org/2000/svg">
<g filter="url(#filter0_d_165_497)">
<path d="M21.4774 0C28.6507 0 34.8771 4.05621 36.519 9.79043C36.593 10.0446 36.585 10.3146 36.4961 10.5643C37.3363 10.9485 38.028 11.5808 38.471 12.3697C38.914 13.1585 39.0853 14.0631 38.9601 14.9522L38.9347 15.1193L36.8575 26.5508C36.6905 27.4704 36.2115 28.3102 35.4959 28.9382C34.7802 29.5662 33.8686 29.9467 32.9043 30.0199V32.231C32.9043 32.435 32.8204 32.6306 32.671 32.7748C32.5215 32.919 32.3189 33 32.1076 33H31.013C30.8017 33 30.599 32.919 30.4496 32.7748C30.3002 32.6306 30.2162 32.435 30.2162 32.231V30.0395H13.3394V32.231C13.3394 32.4345 13.2558 32.6298 13.1069 32.7739C12.9581 32.918 12.756 32.9993 12.5452 33H11.4455C11.2346 32.9993 11.0326 32.918 10.8838 32.7739C10.7349 32.6298 10.6513 32.4345 10.6513 32.231V30.0518C9.59053 30.1032 8.54687 29.7787 7.71663 29.1394C6.8864 28.5001 6.32682 27.59 6.14317 26.5803L4.06602 15.1537C3.90664 14.2769 4.03753 13.3739 4.44011 12.573C4.84268 11.7721 5.49648 11.114 6.30863 10.6921C6.27974 10.5222 6.28666 10.3483 6.329 10.1811C7.78504 4.25521 14.1183 0 21.4774 0ZM33.0443 13.9891L33.0189 14.1071L31.8021 20.7945C31.699 21.3728 31.396 21.9003 30.9426 22.2911C30.4891 22.6819 29.9119 22.913 29.3049 22.9467H13.8383C13.2301 22.9454 12.6404 22.7453 12.1651 22.379C11.6899 22.0127 11.3573 21.5018 11.2215 20.9296L11.191 20.7871L9.98183 14.1415C9.90719 13.7228 9.66332 13.35 9.30387 13.1048C8.94441 12.8597 8.49881 12.7625 8.06505 12.8344C7.65186 12.9066 7.28209 13.1265 7.02963 13.4504C6.77716 13.7742 6.66058 14.1781 6.70319 14.5812L6.71846 14.7016L8.79562 26.1307C8.86691 26.53 9.09209 26.8884 9.42592 27.1341C9.75975 27.3797 10.1775 27.4943 10.5953 27.455L10.7175 27.4378C11.0593 27.379 11.4092 27.379 11.751 27.4378L11.835 27.455H30.8755C30.9607 27.4558 31.0458 27.4501 31.1301 27.4378L31.2497 27.4181C31.5218 27.3641 31.801 27.3517 32.077 27.3813L32.301 27.4132C32.7143 27.4831 33.1397 27.3992 33.4916 27.1786C33.8434 26.958 34.0956 26.6169 34.1974 26.2241L34.2229 26.1062L36.2899 14.7286L36.3102 14.6107C36.3671 14.2159 36.2706 13.8148 36.0394 13.4846C35.8082 13.1544 35.4585 12.9184 35.0578 12.8221L34.9407 12.7976C34.5271 12.7278 34.1014 12.8119 33.7495 13.0331C33.3976 13.2542 33.1456 13.5958 33.0443 13.9891ZM21.4774 2.6116C15.5387 2.6116 10.4909 5.84969 9.0909 10.2621C9.97626 10.4137 10.7915 10.8254 11.4253 11.4411C12.0591 12.0567 12.4804 12.8462 12.6317 13.7017L13.8383 20.3547H29.1548L30.3715 13.6673C30.5234 12.8236 30.938 12.0446 31.5601 11.4341C32.1822 10.8236 32.9823 10.4105 33.8538 10.2498C32.4461 5.82757 27.3907 2.6116 21.4774 2.6116Z" fill="white"/>
</g>
<defs>
<filter id="filter0_d_165_497" x="0" y="0" width="43" height="41" filterUnits="userSpaceOnUse" color-interpolation-filters="sRGB">
<feFlood flood-opacity="0" result="BackgroundImageFix"/>
<feColorMatrix in="SourceAlpha" type="matrix" values="0 0 0 0 0 0 0 0 0 0 0 0 0 0 0 0 0 0 127 0" result="hardAlpha"/>
<feOffset dy="4"/>
<feGaussianBlur stdDeviation="2"/>
<feComposite in2="hardAlpha" operator="out"/>
<feColorMatrix type="matrix" values="0 0 0 0 0 0 0 0 0 0 0 0 0 0 0 0 0 0 0.25 0"/>
<feBlend mode="normal" in2="BackgroundImageFix" result="effect1_dropShadow_165_497"/>
<feBlend mode="normal" in="SourceGraphic" in2="effect1_dropShadow_165_497" result="shape"/>
</filter>
</defs>
</svg>
